<svg width="18" height="18" viewBox="0 0 18 18" fill="none" xmlns="http://www.w3.org/2000/svg">
<path d="M13.6297 16.1272C14.8677 15.8089 15.7826 14.6852 15.7826 13.3478V4.73913C15.7826 3.15432 14.4979 1.86957 12.9131 1.86957H4.30438C2.71956 1.86957 1.43481 3.15432 1.43481 4.73913V13.3478C1.43481 14.6852 2.34972 15.8089 3.58778 16.1272M13.6297 16.1272C13.4006 16.1861 13.1605 16.2174 12.9131 16.2174H4.30438C4.05695 16.2174 3.81684 16.1861 3.58778 16.1272M13.6297 16.1272C13.5816 13.3954 11.352 11.1957 8.60873 11.1957C5.86543 11.1957 3.6359 13.3954 3.58778 16.1272M10.7609 6.89131C10.7609 5.70269 9.79734 4.73913 8.60873 4.73913C7.42011 4.73913 6.45655 5.70269 6.45655 6.89131C6.45655 8.07992 7.42011 9.04348 8.60873 9.04348C9.79734 9.04348 10.7609 8.07992 10.7609 6.89131Z" stroke="#403A92" stroke-width="1.07609"/>
</svg>
