<svg width="22" height="19" viewBox="0 0 22 19" fill="none" xmlns="http://www.w3.org/2000/svg">
<rect width="22" height="19" rx="2" fill="#403A92"/>
<path d="M16.0273 10.0149V13.0224C16.0273 14.1297 15.1297 15.0274 14.0223 15.0274H8.00742C6.9001 15.0274 6.00244 14.1297 6.00244 13.0224V7.00746C6.00244 5.90014 6.9001 5.00249 8.00742 5.00249H11.0149M12.8626 6.01638C12.8626 6.01638 12.8626 6.7333 13.5796 7.45023C14.2965 8.16716 15.0134 8.16716 15.0134 8.16716M9.58868 12.0147L11.0942 11.7996C11.3114 11.7686 11.5126 11.6679 11.6678 11.5128L15.7304 7.45023C16.1263 7.05428 16.1263 6.41232 15.7304 6.01638L15.0134 5.29945C14.6175 4.9035 13.9755 4.9035 13.5796 5.29945L9.51698 9.36204C9.36186 9.51716 9.26124 9.71841 9.23021 9.93558L9.01513 11.4411C8.96734 11.7757 9.25411 12.0625 9.58868 12.0147Z" stroke="white" stroke-width="0.751865" stroke-linecap="round"/>
</svg>
