<svg width="19" height="19" viewBox="0 0 19 19" fill="none" xmlns="http://www.w3.org/2000/svg">
<path d="M2.31519 5.84414H4.63034M4.63034 5.84414C4.63034 7.12277 5.66687 8.1593 6.94549 8.1593C8.22411 8.1593 9.26064 7.12277 9.26064 5.84414C9.26064 4.56552 8.22411 3.52899 6.94549 3.52899C5.66687 3.52899 4.63034 4.56552 4.63034 5.84414ZM2.31519 13.5613H6.94549M13.8909 13.5613H16.2061M13.8909 13.5613C13.8909 14.8399 12.8544 15.8765 11.5758 15.8765C10.2972 15.8765 9.26064 14.8399 9.26064 13.5613C9.26064 12.2827 10.2972 11.2462 11.5758 11.2462C12.8544 11.2462 13.8909 12.2827 13.8909 13.5613ZM11.5758 5.84414H16.2061" stroke="#403A92" stroke-width="1.15758" stroke-linecap="round"/>
</svg>
