<svg width="15" height="15" viewBox="0 0 15 15" fill="none" xmlns="http://www.w3.org/2000/svg">
<path d="M2.68945 4.90934H4.41198M4.41198 4.90934C4.41198 5.86067 5.18318 6.63187 6.13451 6.63187C7.08583 6.63187 7.85704 5.86067 7.85704 4.90934C7.85704 3.95802 7.08583 3.18681 6.13451 3.18681C5.18318 3.18681 4.41198 3.95802 4.41198 4.90934ZM2.68945 10.6511H6.13451M11.3021 10.6511H13.0246M11.3021 10.6511C11.3021 11.6024 10.5309 12.3736 9.57956 12.3736C8.62824 12.3736 7.85704 11.6024 7.85704 10.6511C7.85704 9.69977 8.62824 8.92857 9.57956 8.92857C10.5309 8.92857 11.3021 9.69977 11.3021 10.6511ZM9.57956 4.90934H13.0246" stroke="white" stroke-width="0.861264" stroke-linecap="round"/>
</svg>
