<svg width="22" height="19" viewBox="0 0 22 19" fill="none" xmlns="http://www.w3.org/2000/svg">
<rect width="22" height="19" rx="2" fill="#9E008E"/>
<g clip-path="url(#clip0_940_901)">
<path d="M5 9.5C5 10.2879 5.15519 11.0681 5.45672 11.7961C5.75825 12.5241 6.20021 13.1855 6.75736 13.7426C7.31451 14.2998 7.97595 14.7417 8.7039 15.0433C9.43185 15.3448 10.2121 15.5 11 15.5C11.7879 15.5 12.5681 15.3448 13.2961 15.0433C14.0241 14.7417 14.6855 14.2998 15.2426 13.7426C15.7998 13.1855 16.2417 12.5241 16.5433 11.7961C16.8448 11.0681 17 10.2879 17 9.5C17 8.71207 16.8448 7.93185 16.5433 7.2039C16.2417 6.47595 15.7998 5.81451 15.2426 5.25736C14.6855 4.70021 14.0241 4.25825 13.2961 3.95672C12.5681 3.65519 11.7879 3.5 11 3.5C10.2121 3.5 9.43185 3.65519 8.7039 3.95672C7.97595 4.25825 7.31451 4.70021 6.75736 5.25736C6.20021 5.81451 5.75825 6.47595 5.45672 7.2039C5.15519 7.93185 5 8.71207 5 9.5Z" stroke="white" stroke-width="0.78" stroke-linecap="round" stroke-linejoin="round"/>
<path d="M12.8667 7.5C12.7459 7.29051 12.5704 7.1178 12.3591 7.00037C12.1477 6.88294 11.9083 6.8252 11.6667 6.83334H10.3333C9.97971 6.83334 9.64057 6.97381 9.39052 7.22386C9.14048 7.47391 9 7.81305 9 8.16667C9 8.52029 9.14048 8.85943 9.39052 9.10948C9.64057 9.35953 9.97971 9.5 10.3333 9.5H11.6667C12.0203 9.5 12.3594 9.64048 12.6095 9.89053C12.8595 10.1406 13 10.4797 13 10.8333C13 11.187 12.8595 11.5261 12.6095 11.7761C12.3594 12.0262 12.0203 12.1667 11.6667 12.1667H10.3333C10.0917 12.1748 9.85232 12.1171 9.64095 11.9996C9.42957 11.8822 9.2541 11.7095 9.13333 11.5" stroke="white" stroke-width="0.78" stroke-linecap="round" stroke-linejoin="round"/>
<path d="M11 6.16669V12.8334" stroke="white" stroke-width="0.78" stroke-linecap="round" stroke-linejoin="round"/>
</g>
<defs>
<clipPath id="clip0_940_901">
<rect width="16" height="16" fill="white" transform="translate(3 1.5)"/>
</clipPath>
</defs>
</svg>
