<svg width="18" height="18" viewBox="0 0 18 18" fill="none" xmlns="http://www.w3.org/2000/svg">
<path d="M5.73906 5.02174H8.60862M5.73906 7.89131H11.4782M5.73906 10.7609H11.4782M3.58688 1.43478H13.6304C14.4228 1.43478 15.0651 2.07716 15.0651 2.86957V13.7412C15.0651 14.7349 14.0794 15.4277 13.1444 15.0911L12.024 14.6878C11.6739 14.5618 11.2885 14.5767 10.9492 14.7293L9.19741 15.5177C8.82297 15.6862 8.39428 15.6862 8.01984 15.5177L6.26804 14.7293C5.92873 14.5767 5.54336 14.5618 5.19327 14.6878L4.07287 15.0911C3.13788 15.4277 2.1521 14.7349 2.1521 13.7412V2.86957C2.1521 2.07716 2.79447 1.43478 3.58688 1.43478Z" stroke="#403A92" stroke-width="1.07609" stroke-linecap="round"/>
</svg>
