<svg width="14" height="14" viewBox="0 0 14 14" fill="none" xmlns="http://www.w3.org/2000/svg">
<g clip-path="url(#clip0_46_543)">
<path d="M13.3168 5.34985L11.0541 3.0871C10.9441 2.98084 10.7967 2.92204 10.6438 2.92337C10.4908 2.9247 10.3445 2.98605 10.2363 3.0942C10.1282 3.20236 10.0668 3.34866 10.0655 3.50161C10.0642 3.65456 10.123 3.80191 10.2292 3.91193L12.492 6.17468C12.5592 6.24324 12.618 6.31962 12.667 6.40218C12.6582 6.40218 12.6512 6.39751 12.6425 6.39751L3.49349 6.41618C3.33878 6.41618 3.19041 6.47764 3.08101 6.58703C2.97161 6.69643 2.91016 6.8448 2.91016 6.99951C2.91016 7.15422 2.97161 7.3026 3.08101 7.41199C3.19041 7.52139 3.33878 7.58285 3.49349 7.58285L12.639 7.56418C12.6553 7.56418 12.6687 7.55601 12.6845 7.55485C12.6327 7.65352 12.5671 7.74428 12.4897 7.82435L10.2269 10.0871C10.1712 10.1409 10.1268 10.2053 10.0962 10.2764C10.0656 10.3476 10.0495 10.4242 10.0488 10.5016C10.0482 10.5791 10.0629 10.6559 10.0923 10.7276C10.1216 10.7993 10.1649 10.8644 10.2197 10.9192C10.2744 10.9739 10.3396 11.0172 10.4113 11.0466C10.483 11.0759 10.5598 11.0907 10.6372 11.09C10.7147 11.0893 10.7912 11.0732 10.8624 11.0427C10.9336 11.0121 10.9979 10.9676 11.0517 10.9119L13.3145 8.64918C13.7519 8.21161 13.9977 7.61823 13.9977 6.99951C13.9977 6.3808 13.7519 5.78741 13.3145 5.34985H13.3168Z" fill="#403A92"/>
<path d="M4.08333 12.8333H2.91667C2.45254 12.8333 2.00742 12.649 1.67923 12.3208C1.35104 11.9926 1.16667 11.5475 1.16667 11.0833V2.91667C1.16667 2.45254 1.35104 2.00742 1.67923 1.67923C2.00742 1.35104 2.45254 1.16667 2.91667 1.16667H4.08333C4.23804 1.16667 4.38642 1.10521 4.49581 0.995812C4.60521 0.886416 4.66667 0.738043 4.66667 0.583333C4.66667 0.428624 4.60521 0.280251 4.49581 0.170854C4.38642 0.0614582 4.23804 0 4.08333 0L2.91667 0C2.1434 0.00092625 1.40208 0.308514 0.855295 0.855295C0.308514 1.40208 0.00092625 2.1434 0 2.91667L0 11.0833C0.00092625 11.8566 0.308514 12.5979 0.855295 13.1447C1.40208 13.6915 2.1434 13.9991 2.91667 14H4.08333C4.23804 14 4.38642 13.9385 4.49581 13.8291C4.60521 13.7197 4.66667 13.5714 4.66667 13.4167C4.66667 13.262 4.60521 13.1136 4.49581 13.0042C4.38642 12.8948 4.23804 12.8333 4.08333 12.8333Z" fill="#403A92"/>
</g>
<defs>
<clipPath id="clip0_46_543">
<rect width="14" height="14" fill="white"/>
</clipPath>
</defs>
</svg>
