<svg width="17" height="25" viewBox="0 0 17 25" fill="none" xmlns="http://www.w3.org/2000/svg">
<path fill-rule="evenodd" clip-rule="evenodd" d="M4.4206 11.0339C4.16736 10.7807 4.14788 10.3822 4.36216 10.1067L4.4206 10.0405L7.93299 6.52808C8.18622 6.27485 8.58469 6.25537 8.86027 6.46964L8.92645 6.52808L12.4388 10.0405C12.7132 10.3148 12.7132 10.7596 12.4388 11.0339C12.1856 11.2872 11.7871 11.3066 11.5116 11.0924L11.4454 11.0339L8.42972 8.01881L5.41405 11.0339C5.16082 11.2872 4.76235 11.3066 4.48677 11.0924L4.4206 11.0339Z" fill="#979797"/>
<path fill-rule="evenodd" clip-rule="evenodd" d="M12.439 13.8256C12.6923 14.0788 12.7117 14.4773 12.4975 14.7528L12.439 14.819L8.92663 18.3314C8.67339 18.5847 8.27493 18.6041 7.99935 18.3899L7.93317 18.3314L4.42078 14.819C4.14644 14.5447 4.14644 14.0999 4.42078 13.8256C4.67401 13.5723 5.07248 13.5529 5.34805 13.7671L5.41423 13.8256L8.4299 16.8407L11.4456 13.8256C11.6988 13.5723 12.0973 13.5529 12.3728 13.7671L12.439 13.8256Z" fill="#403A92"/>
</svg>
