<svg width="22" height="19" viewBox="0 0 22 19" fill="none" xmlns="http://www.w3.org/2000/svg">
<rect width="22" height="19" rx="2" fill="#7167FF"/>
<path d="M11.2501 4.04167V5.08334M15.9376 5.60417L15.1563 6.38542M6.56257 5.60417L7.34382 6.38542M11.2501 14.4583C13.1273 14.4583 14.7987 13.2367 15.8736 12.2078C16.6533 11.4614 16.6533 10.1637 15.8736 9.41725C14.7987 8.38829 13.1273 7.16667 11.2501 7.16667C9.37289 7.16667 7.70144 8.38829 6.62654 9.41725C5.84682 10.1637 5.84682 11.4614 6.62654 12.2078C7.70144 13.2367 9.37289 14.4583 11.2501 14.4583ZM12.8126 10.8125C12.8126 11.6754 12.113 12.375 11.2501 12.375C10.3871 12.375 9.68757 11.6754 9.68757 10.8125C9.68757 9.94956 10.3871 9.25 11.2501 9.25C12.113 9.25 12.8126 9.94956 12.8126 10.8125Z" stroke="white" stroke-width="0.78125" stroke-linecap="round"/>
</svg>
